<svg width="26" height="26" viewBox="0 0 26 26" fill="none" xmlns="http://www.w3.org/2000/svg">
<path d="M1 1L2.02857 4.42857M2.02857 4.42857L6.14286 18.1429H25V7.85714C25 5.9636 23.465 4.42857 21.5714 4.42857H2.02857ZM21.5714 25C20.6247 25 19.8571 24.2325 19.8571 23.2857C19.8571 22.3389 20.6247 21.5714 21.5714 21.5714C22.5182 21.5714 23.2857 22.3389 23.2857 23.2857C23.2857 24.2325 22.5182 25 21.5714 25ZM7.85714 23.2857C7.85714 22.3389 8.62465 21.5714 9.57143 21.5714C10.5182 21.5714 11.2857 22.3389 11.2857 23.2857C11.2857 24.2325 10.5182 25 9.57143 25C8.62465 25 7.85714 24.2325 7.85714 23.2857Z" stroke="#023E8A" stroke-width="2"/>
</svg>
