<svg xmlns="http://www.w3.org/2000/svg" viewBox="0 0 385.53 60"><defs><style>.cls-1{fill:#fff;}</style></defs><g id="Layer_2" data-name="Layer 2"><g id="Layer_1-2" data-name="Layer 1"><path class="cls-1" d="M80.5,25.07v34.7H64.79V53.63C60.1,57.63,54.59,60,40.35,60,9.74,60,0,47.84,0,30.68,0,9.59,18.32,0,39.84,0c24.6,0,33.1,6.18,38.38,16.88L59.89,23.06c-2.33-3.31-7.77-6.18-20.21-6.18-16.59,0-20.06,5.86-20.06,14,0,7.39,3,13,20.06,13,12.19,0,14.49-2.39,17-4.86H32.28v-14Z"/><path class="cls-1" d="M128.6.48c5.6,0,25.52.76,25.51,21.77,0,11-5.11,16.86-10.86,20l12.1,17.49-22.71-.11L122.58,45.72H104.74v14H85.12V.48Zm5.49,22.42c0-4.93-5.05-5.11-7.65-5.11h-21.7V28.42h22C129.59,28.42,134.09,27.84,134.09,22.9Z"/><path class="cls-1" d="M226.58.48,197.9,42.34V59.75H178.28V42.34L149.75.48h23.18L188.1,21,203.39.48Z"/><path class="cls-1" d="M278,59.75,249,24V59.75H229.39V.48h27.34l28.52,35.11V.48h19.62V59.75Z"/><path class="cls-1" d="M311.39,59.75V.69h40.49c17.19,0,33.65,4.28,33.65,29.53,0,22.82-18.19,29.53-33.46,29.53ZM365,30.28c0-7.39-3.7-13.38-14.25-13.38H331V43.67h19.74C360.3,43.67,365,37.67,365,30.28Z"/></g></g></svg>